<svg xmlns="http://www.w3.org/2000/svg" style="display: none;"><symbol id="telegram" viewBox="0 0 300 300"><title>telegram</title><path id="XMLID_497_" d="M5.299,144.645l69.126,25.8l26.756,86.047c1.712,5.511,8.451,7.548,12.924,3.891l38.532-31.412 c4.039-3.291,9.792-3.455,14.013-0.391l69.498,50.457c4.785,3.478,11.564,0.856,12.764-4.926L299.823,29.22 c1.31-6.316-4.896-11.585-10.91-9.259L5.218,129.402C-1.783,132.102-1.722,142.014,5.299,144.645z M96.869,156.711l135.098-83.207 c2.428-1.491,4.926,1.792,2.841,3.726L123.313,180.87c-3.919,3.648-6.447,8.53-7.163,13.829l-3.798,28.146 c-0.503,3.758-5.782,4.131-6.819,0.494l-14.607-51.325C89.253,166.16,91.691,159.907,96.869,156.711z" fill="#FFFFFF"/></symbol><symbol id="github-logo" viewBox="0 0 438.549 438.549"><title>github-logo</title><path d="M409.132,114.573c-19.608-33.596-46.205-60.194-79.798-79.8C295.736,15.166,259.057,5.365,219.271,5.365 c-39.781,0-76.472,9.804-110.063,29.408c-33.596,19.605-60.192,46.204-79.8,79.8C9.803,148.168,0,184.854,0,224.63 c0,47.78,13.94,90.745,41.827,128.906c27.884,38.164,63.906,64.572,108.063,79.227c5.14,0.954,8.945,0.283,11.419-1.996 c2.475-2.282,3.711-5.14,3.711-8.562c0-0.571-0.049-5.708-0.144-15.417c-0.098-9.709-0.144-18.179-0.144-25.406l-6.567,1.136 c-4.187,0.767-9.469,1.092-15.846,1c-6.374-0.089-12.991-0.757-19.842-1.999c-6.854-1.231-13.229-4.086-19.13-8.559 c-5.898-4.473-10.085-10.328-12.56-17.556l-2.855-6.57c-1.903-4.374-4.899-9.233-8.992-14.559 c-4.093-5.331-8.232-8.945-12.419-10.848l-1.999-1.431c-1.332-0.951-2.568-2.098-3.711-3.429c-1.142-1.331-1.997-2.663-2.568-3.997 c-0.572-1.335-0.098-2.43,1.427-3.289c1.525-0.859,4.281-1.276,8.28-1.276l5.708,0.853c3.807,0.763,8.516,3.042,14.133,6.851 c5.614,3.806,10.229,8.754,13.846,14.842c4.38,7.806,9.657,13.754,15.846,17.847c6.184,4.093,12.419,6.136,18.699,6.136 c6.28,0,11.704-0.476,16.274-1.423c4.565-0.952,8.848-2.383,12.847-4.285c1.713-12.758,6.377-22.559,13.988-29.41 c-10.848-1.14-20.601-2.857-29.264-5.14c-8.658-2.286-17.605-5.996-26.835-11.14c-9.235-5.137-16.896-11.516-22.985-19.126 c-6.09-7.614-11.088-17.61-14.987-29.979c-3.901-12.374-5.852-26.648-5.852-42.826c0-23.035,7.52-42.637,22.557-58.817 c-7.044-17.318-6.379-36.732,1.997-58.24c5.52-1.715,13.706-0.428,24.554,3.853c10.85,4.283,18.794,7.952,23.84,10.994 c5.046,3.041,9.089,5.618,12.135,7.708c17.705-4.947,35.976-7.421,54.818-7.421s37.117,2.474,54.823,7.421l10.849-6.849 c7.419-4.57,16.18-8.758,26.262-12.565c10.088-3.805,17.802-4.853,23.134-3.138c8.562,21.509,9.325,40.922,2.279,58.24 c15.036,16.18,22.559,35.787,22.559,58.817c0,16.178-1.958,30.497-5.853,42.966c-3.9,12.471-8.941,22.457-15.125,29.979 c-6.191,7.521-13.901,13.85-23.131,18.986c-9.232,5.14-18.182,8.85-26.84,11.136c-8.662,2.286-18.415,4.004-29.263,5.146 c9.894,8.562,14.842,22.077,14.842,40.539v60.237c0,3.422,1.19,6.279,3.572,8.562c2.379,2.279,6.136,2.95,11.276,1.995 c44.163-14.653,80.185-41.062,108.068-79.226c27.88-38.161,41.825-81.126,41.825-128.906 C438.536,184.851,428.728,148.168,409.132,114.573z" fill="#FFFFFF"/></symbol><symbol id="vk" viewBox="0 0 97.75 97.75"><title>vk</title><path d="M48.875,0C21.883,0,0,21.882,0,48.875S21.883,97.75,48.875,97.75S97.75,75.868,97.75,48.875S75.867,0,48.875,0z M73.667,54.161c2.278,2.225,4.688,4.319,6.733,6.774c0.906,1.086,1.76,2.209,2.41,3.472c0.928,1.801,0.09,3.776-1.522,3.883 l-10.013-0.002c-2.586,0.214-4.644-0.829-6.379-2.597c-1.385-1.409-2.67-2.914-4.004-4.371c-0.545-0.598-1.119-1.161-1.803-1.604 c-1.365-0.888-2.551-0.616-3.333,0.81c-0.797,1.451-0.979,3.059-1.055,4.674c-0.109,2.361-0.821,2.978-3.19,3.089 c-5.062,0.237-9.865-0.531-14.329-3.083c-3.938-2.251-6.986-5.428-9.642-9.025c-5.172-7.012-9.133-14.708-12.692-22.625 c-0.801-1.783-0.215-2.737,1.752-2.774c3.268-0.063,6.536-0.055,9.804-0.003c1.33,0.021,2.21,0.782,2.721,2.037 c1.766,4.345,3.931,8.479,6.644,12.313c0.723,1.021,1.461,2.039,2.512,2.76c1.16,0.796,2.044,0.533,2.591-0.762 c0.35-0.823,0.501-1.703,0.577-2.585c0.26-3.021,0.291-6.041-0.159-9.05c-0.28-1.883-1.339-3.099-3.216-3.455 c-0.956-0.181-0.816-0.535-0.351-1.081c0.807-0.944,1.563-1.528,3.074-1.528l11.313-0.002c1.783,0.35,2.183,1.15,2.425,2.946 l0.01,12.572c-0.021,0.695,0.349,2.755,1.597,3.21c1,0.33,1.66-0.472,2.258-1.105c2.713-2.879,4.646-6.277,6.377-9.794 c0.764-1.551,1.423-3.156,2.063-4.764c0.476-1.189,1.216-1.774,2.558-1.754l10.894,0.013c0.321,0,0.647,0.003,0.965,0.058 c1.836,0.314,2.339,1.104,1.771,2.895c-0.894,2.814-2.631,5.158-4.329,7.508c-1.82,2.516-3.761,4.944-5.563,7.471 C71.48,50.992,71.611,52.155,73.667,54.161z" fill="#FFFFFF"/></symbol></svg>